<svg xmlns="http://www.w3.org/2000/svg" width="192" height="69.608" viewBox="0 0 192 69.608"><g transform="translate(-366.984 -86.155)"><text transform="translate(462.984 126.778)" fill="#fff" font-size="18" font-family="OpenSans-Bold, Open Sans" font-weight="700" letter-spacing="0.038em"><tspan x="-95.673" y="0">STAR KEBAB &amp; PIZZA</tspan></text><path d="M807.521,68.864a19.522,19.522,0,0,1-14.02-5.936h-1.862a20.9,20.9,0,0,0,31.765,0h-1.862A19.522,19.522,0,0,1,807.521,68.864Zm0,7.223a26.8,26.8,0,0,0,23.035-13.159h-1.613a25.37,25.37,0,0,1-42.846,0h-1.612A26.8,26.8,0,0,0,807.521,76.087Zm28.133-13.159a31.269,31.269,0,0,1-56.267,0h-1.521a32.64,32.64,0,0,0,59.308,0Z" transform="translate(-336.031 73.835)" fill="#fff"/><path d="M807.521,37.788a19.521,19.521,0,0,0-14.02,5.935h-1.862a20.9,20.9,0,0,1,31.765,0h-1.862A19.521,19.521,0,0,0,807.521,37.788Zm0-7.224a26.8,26.8,0,0,1,23.035,13.159h-1.613a25.37,25.37,0,0,0-42.846,0h-1.612A26.8,26.8,0,0,1,807.521,30.564Zm28.133,13.159a31.269,31.269,0,0,0-56.267,0h-1.521a32.64,32.64,0,0,1,59.308,0Z" transform="translate(-336.031 61.433)" fill="#fff"/></g></svg>