<svg xmlns="http://www.w3.org/2000/svg" width="234" height="86.591" viewBox="0 0 234 86.591"><g transform="translate(-366.984 -86.155)"><text transform="translate(483.984 137.053)" fill="#fff" font-size="22" font-family="OpenSans-Bold, Open Sans" font-weight="700" letter-spacing="0.038em"><tspan x="-116.934" y="0">STAR KEBAB &amp; PIZZA</tspan></text><path d="M814.756,70.312a24.285,24.285,0,0,1-17.441-7.384H795a25.993,25.993,0,0,0,39.514,0H832.2A24.286,24.286,0,0,1,814.756,70.312Zm0,8.985a33.338,33.338,0,0,0,28.655-16.369H841.4a31.559,31.559,0,0,1-53.3,0H786.1A33.34,33.34,0,0,0,814.756,79.3Zm35-16.369a38.9,38.9,0,0,1-69.994,0h-1.892a40.6,40.6,0,0,0,73.778,0Z" transform="translate(-317.769 86.181)" fill="#fff"/><path d="M814.756,40.976a24.284,24.284,0,0,0-17.441,7.383H795a26,26,0,0,1,39.514,0H832.2A24.285,24.285,0,0,0,814.756,40.976Zm0-8.986a33.338,33.338,0,0,1,28.655,16.369H841.4a31.559,31.559,0,0,0-53.3,0H786.1A33.34,33.34,0,0,1,814.756,31.99Zm35,16.369a38.9,38.9,0,0,0-69.994,0h-1.892a40.6,40.6,0,0,1,73.778,0Z" transform="translate(-317.769 61.433)" fill="#fff"/></g></svg>