<svg xmlns="http://www.w3.org/2000/svg" width="96.137" height="84.018" viewBox="0 0 96.137 84.018"><path d="M79.812,2.619c-12.064-6.57-30.34.247-51.194,9.149-9.867,4.216-14.576,11.5-13.253,20.518a27.267,27.267,0,0,0,2,6.727l-2.242,1.144a10.943,10.943,0,0,0-8.1-3,7.848,7.848,0,0,0-5.83,5.068A8.544,8.544,0,0,0,1.059,50.7a8.073,8.073,0,0,0,4.1,3.117,9.261,9.261,0,0,0,0,6.234,7.512,7.512,0,0,0,5.7,4.485,11.661,11.661,0,0,0,2.87.493A7.557,7.557,0,0,0,19.2,62.961c2.87-2.758,2.96-7.422,2.736-10.113l3.139-1.884c.785.9,1.615,1.771,2.489,2.646,6.167,6.211,12.983,10.4,17.782,10.965,7.512.83,15.7-11.324,20.182-19.015,7.983,12.916,24.666,36.192,25.429,37.291A2.825,2.825,0,0,0,93.2,84.017a2.96,2.96,0,0,0,1.009-.157,2.8,2.8,0,0,0,1.928-2.691c0-.359-.448-34.6-4.709-59.356C89.723,12.216,85.911,5.937,79.812,2.619ZM17.474,48.946a2.781,2.781,0,0,0-1.3,2.938c.4,2.108.4,5.808-.852,7.019-.74.7-2.242.516-3.251.269s-1.615-.628-1.794-1.1a6.907,6.907,0,0,1,1.278-4.642,2.8,2.8,0,0,0-2.242-4.35,5.068,5.068,0,0,1-3.453-1.345c-.359-.583-.179-1.749.471-3.184.381-.785.964-1.771,1.682-1.884,1.233-.179,3.543,1.48,4.709,2.758a2.8,2.8,0,0,0,3.431.605l3.834-2.063c.516.83,1.076,1.682,1.659,2.534ZM67.883,38.5a2.781,2.781,0,0,0-2.467-1.435h0a2.736,2.736,0,0,0-2.444,1.525c-5.225,10.18-13.23,20.877-16.93,20.406C41.893,58.5,34.022,53.05,28.1,45.9a.964.964,0,0,0-.2-.224,41.484,41.484,0,0,1-4.485-6.727,1.435,1.435,0,0,0,0-.157l-.135-.157A23.792,23.792,0,0,1,20.9,31.388c-.942-6.548,2.242-11.212,9.911-14.553C49.607,8.965,67.3,2.237,77.121,7.529c4.485,2.444,7.333,7.445,8.678,15.248A407.511,407.511,0,0,1,90.284,72.11c-6.907-9.754-18.32-26.236-22.4-33.613Z" transform="translate(0 0)" fill="#fdb932"/><path d="M45.828,0C35.94,0,22.194,5.516,8.941,11.212c-8.97,3.812-9.306,8.97-8.79,12.557a2.8,2.8,0,0,0,2.781,2.4h.4a2.8,2.8,0,0,0,2.4-3.251c-.224-1.615-.583-4.036,5.449-6.593C23.9,10.9,37.038,5.606,45.873,5.606a2.8,2.8,0,0,0,0-5.606Z" transform="translate(25.687 8.045)" fill="#fdb932"/><path d="M5.755.729.978,4.654A2.8,2.8,0,0,0,.6,8.511,2.848,2.848,0,0,0,2.839,9.542a2.781,2.781,0,0,0,1.771-.65L9.387,4.968A2.8,2.8,0,1,0,5.822.64Z" transform="translate(43.225 43.059)" fill="#fdb932"/><path d="M3.895.619l-2.8,2.242A2.8,2.8,0,0,0,2.8,7.884,2.713,2.713,0,0,0,4.5,7.3L7.3,5.059A2.817,2.817,0,0,0,3.895.574Z" transform="translate(47.865 32.272)" fill="#fdb932"/></svg>