<svg xmlns="http://www.w3.org/2000/svg" width="101.536" height="83.886" viewBox="0 0 101.536 83.886"><path d="M96.621,34.819A59.585,59.585,0,0,0,66.613,4.381h-.108a3.893,3.893,0,0,0-.581-.194,3.27,3.27,0,0,0-.452,0,2,2,0,0,0-.473,0,1.635,1.635,0,0,0-.538.129h-.108L60.418,6.339a15.918,15.918,0,0,0-28.631,9.486,15.058,15.058,0,0,0,.43,3.571L1.371,33.787c-.129,0-.194.151-.323.237a1.914,1.914,0,0,0-.473.28,3.076,3.076,0,0,0-.3.43,4.56,4.56,0,0,0-.258.43,2.947,2.947,0,0,0,0,.6,2.5,2.5,0,0,0,0,.387V81.2A2.689,2.689,0,0,0,2.7,83.886h91.83l.538-.108A2.667,2.667,0,0,0,96.9,81.821a59.886,59.886,0,0,0,0-46.205,2.99,2.99,0,0,0-.28-.8ZM47.727,5.263a10.562,10.562,0,1,1-7.468,3.093,10.562,10.562,0,0,1,7.468-3.093ZM34.239,24.344a15.875,15.875,0,0,0,19.79,6.088h0L65.43,25.7a2.691,2.691,0,0,0-2.065-4.969l-.624.258a15.724,15.724,0,0,0,.129-10L65.409,9.8a54.164,54.164,0,0,1,24.5,23.662H14.621ZM92.319,78.508H84.381v-28.7a2.689,2.689,0,0,0-2.689-2.6H69.431a2.689,2.689,0,1,0,0,5.378H79V78.508H5.2V52.5H56.654a2.689,2.689,0,0,0,0-5.378H5.2V38.906H92.319A54.25,54.25,0,0,1,92.319,78.508Z" transform="translate(0 0)" fill="#b18263"/><path d="M11.164,0H2.689a2.689,2.689,0,0,0,0,5.378h8.475a2.689,2.689,0,1,0,0-5.378Z" transform="translate(12.513 61.45)" fill="#b18263"/><path d="M0,2.689A2.689,2.689,0,0,0,2.689,5.378H37.321a2.689,2.689,0,1,0,0-5.378H2.71A2.689,2.689,0,0,0,0,2.689Z" transform="translate(32.088 61.45)" fill="#b18263"/></svg>