<svg xmlns="http://www.w3.org/2000/svg" width="92.96" height="84" viewBox="0 0 92.96 84"><path d="M18.259,31.19H10.8a10.769,10.769,0,0,0-8.473,4.064A10.911,10.911,0,0,0,.3,44.52c3.312,14.224,7.742,27.451,21.132,34.4H4.787a2.54,2.54,0,0,0,0,5.08H88.1a2.54,2.54,0,1,0,0-5.08H72.349c13.98-7.193,17.21-20.949,20.319-34.4A10.851,10.851,0,0,0,82.123,31.17H46.076a12.517,12.517,0,0,0,5-9.835c0-6.1-5.161-8.8-9.327-10.952-3.434-1.788-5.811-3.17-6.787-5.3h53.5a2.54,2.54,0,1,0,0-5.08H4.483a2.54,2.54,0,1,0,0,5.08h8.575c1.138,5.324,5.852,7.8,9.774,9.835s6.583,3.556,6.583,6.441C29.414,27.939,19.885,30.763,18.259,31.19ZM25.168,10.4c-3.434-1.788-5.811-3.17-6.787-5.3H29.638c1.1,5.3,5.872,7.782,9.774,9.814s6.583,3.556,6.583,6.441c0,6.583-9.53,9.408-11.135,9.835H29.5a12.578,12.578,0,0,0,5.019-9.835C34.515,15.239,29.313,12.557,25.168,10.4Zm10,25.866H82.143a5.689,5.689,0,0,1,4.491,2.174,5.75,5.75,0,0,1,1.118,4.938H31.2a2.54,2.54,0,0,0,0,5.08H86.512C82.245,65.814,76.555,78.94,46.483,78.94c-27.9,0-35.335-12.842-40.009-30.479H17.528a2.54,2.54,0,1,0,0-5.08H5.234a5.771,5.771,0,0,1,5.588-7.112H35.165Z" transform="translate(0)" fill="#8f0095"/></svg>