<svg xmlns="http://www.w3.org/2000/svg" width="84.142" height="84.203" viewBox="0 0 84.142 84.203"><path d="M.218,11.582C2.041,22.575,4.54,36.433,14.928,43.768H4.684a2.572,2.572,0,0,0-1.811.744,2.525,2.525,0,0,0,0,3.592,2.572,2.572,0,0,0,1.811.744H63.5a2.572,2.572,0,0,0,1.811-.744,2.525,2.525,0,0,0,0-3.592,2.572,2.572,0,0,0-1.811-.744H52.216A27.725,27.725,0,0,0,61.783,30.56h1.455c4.446,0,12.129-.65,16.759-4.694a11.322,11.322,0,0,0,4.1-8.575,10.12,10.12,0,0,0-3.708-8.839C76.1,5.08,69.446,5.567,65.819,6.157a6.254,6.254,0,0,0-.676-1.016C62.521,2.052,56.108,0,33.346,0S4.09,2.073,1.467,5.161A5.741,5.741,0,0,0,.443,6.868a2.61,2.61,0,0,0-.41.975,2.761,2.761,0,0,0,0,.711,10.985,10.985,0,0,0,.184,3.028ZM33.244,43.768c-20.488,0-24.585-14.041-27.884-32.511A226.533,226.533,0,0,0,34.043,12.8a199.824,199.824,0,0,0,27.044-1.483C57.973,29.5,55.309,43.768,33.244,43.768ZM77.108,12.456A5.36,5.36,0,0,1,78.87,17.17a6.439,6.439,0,0,1-2.233,4.9C73.461,24.81,67.479,25.48,63.422,25.5c1.229-4.47,2.049-9.225,2.868-13.919v-.345C69.446,10.708,74.506,10.383,77.108,12.456ZM57.133,6.705A225.775,225.775,0,0,1,34.084,7.742a243.973,243.973,0,0,1-24.462-1.1C13.555,5.771,20.644,5.1,33.244,5.1S53.26,5.811,57.133,6.705Z" transform="translate(0 35.355)" fill="#5395ff"/><path d="M9.566,13.9c3.79,2.032,6.146,3.292,6.146,5.913,0,6.583-10.531,9.083-10.633,9.123a2.561,2.561,0,0,0-1.471,1.02,2.525,2.525,0,0,0,.38,3.312,2.572,2.572,0,0,0,1.664.666h.574c.594-.122,14.608-3.434,14.608-14.061,0-5.832-4.938-8.372-8.892-10.424S5.263,5.811,5.12,2.641a2.529,2.529,0,0,0-.748-1.9A2.574,2.574,0,0,0,.611.893,2.526,2.526,0,0,0,.018,2.844C.264,9.123,5.427,11.785,9.566,13.9Z" transform="translate(12.143 0)" fill="#5395ff"/><path d="M9.549,13.7c3.79,2.032,6.146,3.292,6.146,5.913,0,6.583-10.531,9.083-10.633,9.123a2.561,2.561,0,0,0-1.471,1.02,2.525,2.525,0,0,0,.38,3.312,2.572,2.572,0,0,0,1.664.666,2.747,2.747,0,0,0,.574,0C6.8,33.61,20.818,30.3,20.818,19.67c0-5.832-4.938-8.372-8.892-10.424S5.247,5.61,5.124,2.44A2.552,2.552,0,0,0,4.3.679,2.565,2.565,0,0,0,1.488.233,2.548,2.548,0,0,0,.157,1.663,2.521,2.521,0,0,0,0,2.643C.248,8.922,5.411,11.583,9.549,13.7Z" transform="translate(27.833 0.201)" fill="#5395ff"/></svg>