<svg xmlns="http://www.w3.org/2000/svg" width="182" height="70.309" viewBox="0 0 182 70.309"><g transform="translate(-375.984 -86.155)"><text transform="translate(466.984 125.995)" fill="#fff" font-size="17" font-family="OpenSans-Bold, Open Sans" font-weight="700" letter-spacing="0.038em"><tspan x="-90.358" y="0">STAR KEBAB &amp; PIZZA</tspan></text><path d="M807.82,68.923a19.719,19.719,0,0,1-14.161-6h-1.88a21.105,21.105,0,0,0,32.084,0h-1.88A19.719,19.719,0,0,1,807.82,68.923Zm0,7.3a27.07,27.07,0,0,0,23.267-13.291h-1.629a25.625,25.625,0,0,1-43.277,0h-1.628A27.071,27.071,0,0,0,807.82,76.219Zm28.416-13.291a31.584,31.584,0,0,1-56.833,0h-1.536a32.969,32.969,0,0,0,59.905,0Z" transform="translate(-335.278 74.344)" fill="#fff"/><path d="M807.82,37.92a19.718,19.718,0,0,0-14.161,5.995h-1.88a21.108,21.108,0,0,1,32.084,0h-1.88A19.718,19.718,0,0,0,807.82,37.92Zm0-7.3a27.069,27.069,0,0,1,23.267,13.291h-1.629a25.625,25.625,0,0,0-43.277,0h-1.628A27.071,27.071,0,0,1,807.82,30.623Zm28.416,13.291a31.583,31.583,0,0,0-56.833,0h-1.536a32.969,32.969,0,0,1,59.905,0Z" transform="translate(-335.278 61.433)" fill="#fff"/></g></svg>