<svg xmlns="http://www.w3.org/2000/svg" width="174" height="61.351" viewBox="0 0 174 61.351"><g transform="translate(-391.984 116.845)"><text transform="translate(478.984 -81.047)" font-size="16" font-family="Raleway-Black, Raleway" font-weight="800" letter-spacing="0.038em"><tspan x="-86.048" y="0">STAR KEBAB &amp; PIZZA</tspan></text><path d="M804,68.16a17.206,17.206,0,0,1-12.357-5.232h-1.641a18.417,18.417,0,0,0,28,0h-1.641A17.207,17.207,0,0,1,804,68.16Zm0,6.366a23.621,23.621,0,0,0,20.3-11.6h-1.422a22.36,22.36,0,0,1-37.763,0H783.7A23.622,23.622,0,0,0,804,74.526Zm24.8-11.6a27.56,27.56,0,0,1-49.592,0h-1.34a28.768,28.768,0,0,0,52.273,0Z" transform="translate(-322.779 -135.168)"/><path d="M804,36.238a17.206,17.206,0,0,0-12.357,5.231h-1.641a18.419,18.419,0,0,1,28,0h-1.641A17.206,17.206,0,0,0,804,36.238Zm0-6.367a23.621,23.621,0,0,1,20.3,11.6h-1.422a22.36,22.36,0,0,0-37.763,0H783.7A23.622,23.622,0,0,1,804,29.871Zm24.8,11.6a27.559,27.559,0,0,0-49.592,0h-1.34a28.768,28.768,0,0,1,52.273,0Z" transform="translate(-322.779 -141.567)"/></g></svg>