<svg xmlns="http://www.w3.org/2000/svg" width="22.601" height="23.317" viewBox="0 0 22.601 23.317">
  <g id="Group_88042" data-name="Group 88042" transform="translate(-1187 -528.317)">
    <path id="Cart" d="M7.278,14.45V17.09A1.4,1.4,0,0,0,8.534,18.6h8.789c2.077,0,3.767,2.03,3.767,4.527v1.509H18.578V23.126a1.4,1.4,0,0,0-1.256-1.509H9.789v3.018H7.278V21.353A4.555,4.555,0,0,1,4.767,17.09V6.147L3.619,4.768H1V1.751H4.659L6.542,4.014H23.6V8.54c0,3.328-2.253,6.035-5.022,6.035Z" transform="translate(1186 527)" fill="#fff"/>
    <text id="_1" data-name="1" transform="translate(1200.8 539.317)" fill="red" font-size="10" font-family="STC-Regular, STC"><tspan x="-3.09" y="0">1</tspan></text>
  </g>
</svg>
